# Blender v2.68 (sub 0) OBJ File: 'mushroom.blend'
# www.blender.org
mtllib mushroom.mtl
o mushroom_Cylinder
v 1.336628 0.288552 -0.434297
v 0.000000 5.736432 0.000000
v 0.000000 2.736432 -1.405414
v 0.000000 5.736432 -1.227264
v 0.826081 2.736432 -1.137004
v 0.721368 5.736432 -0.992877
v 1.336628 2.736432 -0.434297
v 1.167197 5.736432 -0.379245
v 1.336628 2.736432 0.434297
v 1.167197 5.736432 0.379245
v 0.826081 2.736432 1.137004
v 0.721367 5.736432 0.992877
v -0.000000 2.736432 1.405414
v -0.000000 5.736432 1.227264
v -0.826082 2.736432 1.137004
v -0.721368 5.736432 0.992877
v -1.336628 2.736432 0.434297
v -1.167197 5.736432 0.379246
v -1.336628 2.736432 -0.434297
v -1.167197 5.736432 -0.379246
v -0.826081 2.736432 -1.137004
v -0.721367 5.736432 -0.992878
v 0.000000 5.530381 -1.500000
v 0.881678 5.530381 -1.213526
v 1.426585 5.530381 -0.463525
v 1.426585 5.530381 0.463526
v 0.881678 5.530381 1.213526
v -0.000000 5.530381 1.500000
v -0.881678 5.530381 1.213525
v -1.426585 5.530381 0.463526
v -1.426585 5.530381 -0.463526
v -0.881677 5.530381 -1.213526
v -1.790852 5.517342 -2.031216
v -1.806875 5.560269 -1.967292
v 1.520540 2.984968 -2.092844
v 2.460286 2.984968 -0.799395
v 2.460286 2.984968 0.799395
v 1.520540 2.984968 2.092844
v -0.000000 2.984968 2.586898
v -1.520541 2.984968 2.092844
v -2.460286 2.984968 0.799396
v -2.460286 2.984968 -0.799396
v -1.520539 2.984968 -2.092845
v -0.000000 2.984968 -2.586898
v 1.448579 3.849511 -1.993798
v 2.343850 3.849511 -0.761563
v 2.343849 3.849511 0.761563
v 1.448578 3.849511 1.993798
v -0.000000 3.849511 2.464469
v -1.448579 3.849511 1.993798
v -2.343849 3.849511 0.761563
v -2.343849 3.849511 -0.761563
v -1.448578 3.849511 -1.993798
v -0.000000 3.849511 -2.464469
v -0.000000 0.000000 0.000000
v 0.000000 0.000000 -1.270773
v 0.746942 0.000000 -1.028077
v 1.208577 0.000000 -0.392690
v 1.208577 0.000000 0.392690
v 0.746942 0.000000 1.028077
v -0.000000 0.000000 1.270773
v -0.746942 0.000000 1.028077
v -1.208577 0.000000 0.392691
v -1.208577 0.000000 -0.392691
v -0.746941 0.000000 -1.028077
v 1.336628 0.288552 0.434297
v 0.826081 0.288552 1.137004
v -0.000000 0.288552 1.405414
v -0.826082 0.288552 1.137004
v -1.336628 0.288552 0.434297
v 0.826081 0.288552 -1.137004
v -1.336628 0.288552 -0.434297
v -0.826081 0.288552 -1.137004
v 0.000000 0.288552 -1.405414
v -0.926330 -0.249466 -0.415563
vt 0.354170 0.333163
vt 0.311951 0.347307
vt 0.353159 0.272914
vt 0.808649 0.187190
vt 0.837408 0.162596
vt 0.846372 0.184197
vt 0.857521 0.183549
vt 0.846047 0.155519
vt 0.269259 0.358666
vt 0.310937 0.285704
vt 0.817459 0.150389
vt 0.820288 0.139585
vt 0.226184 0.362901
vt 0.268631 0.295974
vt 0.794145 0.152238
vt 0.790084 0.141836
vt 0.183117 0.358394
vt 0.226195 0.299804
vt 0.776371 0.167439
vt 0.766970 0.161410
vt 0.140440 0.346867
vt 0.183762 0.295729
vt 0.770925 0.190184
vt 0.759777 0.190832
vt 0.098235 0.332723
vt 0.141461 0.285306
vt 0.779889 0.211785
vt 0.771250 0.218862
vt 0.056322 0.321364
vt 0.099239 0.272517
vt 0.799838 0.223992
vt 0.797009 0.234796
vt 0.396088 0.321636
vt 0.395460 0.262492
vt 0.823153 0.222143
vt 0.827214 0.232545
vt 0.479718 0.321364
vt 0.437904 0.317129
vt 0.480329 0.262246
vt 0.840927 0.206942
vt 0.850327 0.212971
vt 0.437893 0.258417
vt 0.934849 0.185636
vt 0.909833 0.111754
vt 0.846168 0.066686
vt 0.768172 0.067647
vt 0.705637 0.114269
vt 0.682448 0.188745
vt 0.707464 0.262627
vt 0.771129 0.307695
vt 0.849125 0.306734
vt 0.911661 0.260112
vt 0.400837 0.838311
vt 0.398797 0.875319
vt 0.362324 0.849838
vt 0.358709 0.896536
vt 0.320914 0.863983
vt 0.316760 0.922572
vt 0.275300 0.875342
vt 0.272379 0.943480
vt 0.226074 0.879577
vt 0.226128 0.951275
vt 0.176921 0.875070
vt 0.179913 0.942979
vt 0.131449 0.863543
vt 0.135610 0.921762
vt 0.090156 0.849398
vt 0.093734 0.895727
vt 0.051710 0.838039
vt 0.475106 0.838039
vt 0.477086 0.874819
vt 0.437982 0.833804
vt 0.437949 0.867024
vt 0.990486 0.187191
vt 0.955758 0.080309
vt 0.864840 0.014253
vt 0.752458 0.014253
vt 0.661539 0.080309
vt 0.626812 0.187191
vt 0.661540 0.294072
vt 0.752458 0.360128
vt 0.864839 0.360128
vt 0.955758 0.294072
vt 0.438576 0.067412
vt 0.015180 0.067412
vt 0.056933 0.262246
vt 0.053691 0.874819
vn 0.739474 -0.405624 -0.537259
vn 0.000000 1.000000 -0.000000
vn 0.192211 0.783012 -0.591563
vn 0.914040 -0.405625 0.000000
vn 0.503214 0.783012 -0.365606
vn 0.739474 -0.405625 0.537259
vn 0.622007 0.783012 0.000000
vn 0.282454 -0.405625 0.869303
vn 0.503214 0.783012 0.365606
vn -0.282454 -0.405625 0.869303
vn 0.192211 0.783012 0.591563
vn -0.739474 -0.405625 0.537259
vn -0.192211 0.783012 0.591563
vn -0.914040 -0.405625 0.000000
vn -0.503214 0.783012 0.365606
vn 0.282454 -0.405625 -0.869303
vn -0.622006 0.783012 0.000000
vn -0.739474 -0.405625 -0.537259
vn -0.503214 0.783012 -0.365606
vn -0.282454 -0.405625 -0.869303
vn -0.192210 0.783012 -0.591563
vn 0.271256 0.479024 -0.834839
vn 0.710157 0.479024 -0.515959
vn 0.877802 0.479024 0.000000
vn 0.710157 0.479024 0.515959
vn 0.271256 0.479024 0.834839
vn -0.271256 0.479024 0.834839
vn -0.710157 0.479024 0.515959
vn -0.877802 0.479024 0.000000
vn -0.710157 0.479024 -0.515959
vn -0.271255 0.479024 -0.834839
vn 0.066737 -0.976401 -0.205395
vn 0.174719 -0.976401 -0.126941
vn 0.215965 -0.976401 0.000000
vn 0.174719 -0.976401 0.126941
vn 0.066737 -0.976401 0.205395
vn -0.066737 -0.976401 0.205395
vn -0.174719 -0.976401 0.126941
vn -0.215965 -0.976401 0.000000
vn -0.174719 -0.976401 -0.126941
vn -0.066737 -0.976401 -0.205395
vn 0.306252 0.133474 -0.942547
vn 0.801778 0.133474 -0.582526
vn 0.991052 0.133474 0.000000
vn 0.801778 0.133474 0.582526
vn 0.306252 0.133474 0.942547
vn -0.306252 0.133474 0.942547
vn -0.801778 0.133474 0.582526
vn -0.991052 0.133474 0.000000
vn -0.801778 0.133474 -0.582526
vn -0.306252 0.133474 -0.942547
vn -0.000000 -1.000000 0.000000
vn 0.809017 0.000000 -0.587785
vn 1.000000 0.000000 0.000000
vn 0.809017 0.000000 0.587785
vn 0.309017 0.000000 0.951057
vn -0.309017 0.000000 0.951057
vn -0.809017 0.000000 0.587785
vn -1.000000 0.000000 0.000000
vn 0.309017 0.000000 -0.951057
vn -0.809017 0.000000 -0.587785
vn -0.309017 0.000000 -0.951057
vn 0.739474 -0.405625 -0.537259
vn 0.622006 0.783012 0.000000
vn 0.282454 -0.405624 -0.869304
vn -0.739473 -0.405625 -0.537259
vn -0.282454 -0.405625 -0.869304
usemtl mushroom
s off
f 71/1/1 1/2/1 57/3/1
f 2/4/2 6/5/2 4/6/2
f 23/7/3 4/6/3 24/8/3
f 1/2/4 66/9/4 58/10/4
f 2/4/2 8/11/2 6/5/2
f 24/8/5 6/5/5 25/12/5
f 66/9/6 67/13/6 59/14/6
f 2/4/2 10/15/2 8/11/2
f 25/12/7 8/11/7 26/16/7
f 67/13/8 68/17/8 60/18/8
f 2/4/2 12/19/2 10/15/2
f 26/16/9 10/15/9 27/20/9
f 68/17/10 69/21/10 61/22/10
f 2/4/2 14/23/2 12/19/2
f 27/20/11 12/19/11 28/24/11
f 69/21/12 70/25/12 62/26/12
f 2/4/2 16/27/2 14/23/2
f 28/24/13 14/23/13 29/28/13
f 70/25/14 72/29/14 63/30/14
f 2/4/2 18/31/2 16/27/2
f 29/28/15 16/27/15 30/32/15
f 74/33/16 71/1/16 56/34/16
f 2/4/2 20/35/2 18/31/2
f 30/32/17 18/31/17 31/36/17
f 72/37/18 73/38/18 64/39/18
f 2/4/2 22/40/2 20/35/2
f 31/36/19 20/35/19 32/41/19
f 73/38/20 74/33/20 65/42/20
f 2/4/2 4/6/2 22/40/2
f 32/41/21 22/40/21 23/7/21
f 54/43/22 23/7/22 45/44/22
f 45/44/23 24/8/23 46/45/23
f 46/45/24 25/12/24 47/46/24
f 47/46/25 26/16/25 48/47/25
f 48/47/26 27/20/26 49/48/26
f 49/48/27 28/24/27 50/49/27
f 50/49/28 29/28/28 51/50/28
f 51/50/29 30/32/29 52/51/29
f 52/51/30 31/36/30 53/52/30
f 53/52/31 32/41/31 54/43/31
f 3/53/32 44/54/32 5/55/32
f 5/55/33 35/56/33 7/57/33
f 7/57/34 36/58/34 9/59/34
f 9/59/35 37/60/35 11/61/35
f 11/61/36 38/62/36 13/63/36
f 13/63/37 39/64/37 15/65/37
f 15/65/38 40/66/38 17/67/38
f 17/67/39 41/68/39 19/69/39
f 19/70/40 42/71/40 21/72/40
f 21/72/41 43/73/41 3/53/41
f 44/74/42 54/43/42 35/75/42
f 35/75/43 45/44/43 36/76/43
f 36/76/44 46/45/44 37/77/44
f 37/77/45 47/46/45 38/78/45
f 38/78/46 48/47/46 39/79/46
f 39/79/47 49/48/47 40/80/47
f 40/80/48 50/49/48 41/81/48
f 41/81/49 51/50/49 42/82/49
f 42/82/50 52/51/50 43/83/50
f 43/83/51 53/52/51 44/74/51
f 55/84/52 56/34/52 57/3/52
f 55/84/52 57/3/52 58/10/52
f 55/84/52 58/10/52 59/14/52
f 55/84/52 59/14/52 60/18/52
f 55/85/52 60/18/52 61/22/52
f 55/85/52 61/22/52 62/26/52
f 55/85/52 62/26/52 63/30/52
f 55/85/52 63/30/52 64/86/52
f 55/84/52 64/39/52 65/42/52
f 55/84/52 65/42/52 56/34/52
f 5/55/53 7/57/53 71/1/53
f 7/57/54 9/59/54 1/2/54
f 9/59/55 11/61/55 66/9/55
f 11/61/56 13/63/56 67/13/56
f 13/63/57 15/65/57 68/17/57
f 15/65/58 17/67/58 69/21/58
f 17/67/59 19/69/59 70/25/59
f 3/53/60 5/55/60 74/33/60
f 19/70/61 21/72/61 72/37/61
f 21/72/62 3/53/62 73/38/62
f 1/2/63 58/10/63 57/3/63
f 4/6/3 6/5/3 24/8/3
f 66/9/4 59/14/4 58/10/4
f 6/5/5 8/11/5 25/12/5
f 67/13/6 60/18/6 59/14/6
f 8/11/64 10/15/64 26/16/64
f 68/17/8 61/22/8 60/18/8
f 10/15/9 12/19/9 27/20/9
f 69/21/10 62/26/10 61/22/10
f 12/19/11 14/23/11 28/24/11
f 70/25/12 63/30/12 62/26/12
f 14/23/13 16/27/13 29/28/13
f 72/29/14 64/86/14 63/30/14
f 16/27/15 18/31/15 30/32/15
f 71/1/65 57/3/65 56/34/65
f 18/31/17 20/35/17 31/36/17
f 73/38/66 65/42/66 64/39/66
f 20/35/19 22/40/19 32/41/19
f 74/33/67 56/34/67 65/42/67
f 22/40/21 4/6/21 23/7/21
f 23/7/22 24/8/22 45/44/22
f 24/8/23 25/12/23 46/45/23
f 25/12/24 26/16/24 47/46/24
f 26/16/25 27/20/25 48/47/25
f 27/20/26 28/24/26 49/48/26
f 28/24/27 29/28/27 50/49/27
f 29/28/28 30/32/28 51/50/28
f 30/32/29 31/36/29 52/51/29
f 31/36/30 32/41/30 53/52/30
f 32/41/31 23/7/31 54/43/31
f 44/54/32 35/56/32 5/55/32
f 35/56/33 36/58/33 7/57/33
f 36/58/34 37/60/34 9/59/34
f 37/60/35 38/62/35 11/61/35
f 38/62/36 39/64/36 13/63/36
f 39/64/37 40/66/37 15/65/37
f 40/66/38 41/68/38 17/67/38
f 41/68/39 42/87/39 19/69/39
f 42/71/40 43/73/40 21/72/40
f 43/73/41 44/54/41 3/53/41
f 54/43/42 45/44/42 35/75/42
f 45/44/43 46/45/43 36/76/43
f 46/45/44 47/46/44 37/77/44
f 47/46/45 48/47/45 38/78/45
f 48/47/46 49/48/46 39/79/46
f 49/48/47 50/49/47 40/80/47
f 50/49/48 51/50/48 41/81/48
f 51/50/49 52/51/49 42/82/49
f 52/51/50 53/52/50 43/83/50
f 53/52/51 54/43/51 44/74/51
f 7/57/53 1/2/53 71/1/53
f 9/59/54 66/9/54 1/2/54
f 11/61/55 67/13/55 66/9/55
f 13/63/56 68/17/56 67/13/56
f 15/65/57 69/21/57 68/17/57
f 17/67/58 70/25/58 69/21/58
f 19/69/59 72/29/59 70/25/59
f 5/55/60 71/1/60 74/33/60
f 21/72/61 73/38/61 72/37/61
f 3/53/62 74/33/62 73/38/62
